<svg xmlns="http://www.w3.org/2000/svg" xmlns:xlink="http://www.w3.org/1999/xlink" width="500" zoomAndPan="magnify" viewBox="0 0 375 374.999991" height="500" preserveAspectRatio="xMidYMid meet" version="1.0"><defs><g/><clipPath id="id1"><path d="M 99.328125 69.484375 L 275.578125 69.484375 L 275.578125 181 L 99.328125 181 Z M 99.328125 69.484375 " clip-rule="nonzero"/></clipPath><clipPath id="id2"><path d="M 99.328125 119 L 275.578125 119 L 275.578125 230.734375 L 99.328125 230.734375 Z M 99.328125 119 " clip-rule="nonzero"/></clipPath></defs><g clip-path="url(#id1)"><path fill="#ffffff" d="M 179.417969 69.515625 L 237.785156 69.515625 L 237.785156 94.035156 L 275.578125 94.035156 L 275.578125 118.554688 L 213.113281 180.917969 L 175.320312 180.917969 L 237.785156 118.554688 L 237.785156 94.035156 L 124.269531 94.035156 L 99.710938 69.515625 Z M 179.417969 69.515625 " fill-opacity="1" fill-rule="evenodd"/></g><g clip-path="url(#id2)"><path fill="#ffffff" d="M 195.488281 230.703125 L 137.121094 230.703125 L 137.121094 206.183594 L 99.328125 206.183594 L 99.328125 181.664062 L 161.792969 119.300781 L 199.589844 119.300781 L 137.121094 181.664062 L 137.121094 206.183594 L 250.636719 206.183594 L 275.195312 230.703125 Z M 195.488281 230.703125 " fill-opacity="1" fill-rule="evenodd"/></g><g fill="#ffffff" fill-opacity="1"><g transform="translate(68.849194, 281.206374)"><g><path d="M 28.765625 -6.828125 L 28.765625 0 L 1.515625 0 L 1.515625 -5.390625 L 16.859375 -23.59375 L 1.90625 -23.59375 L 1.90625 -30.421875 L 28.109375 -30.421875 L 28.109375 -25.03125 L 12.78125 -6.828125 Z M 28.765625 -6.828125 "/></g></g></g><g fill="#ffffff" fill-opacity="1"><g transform="translate(104.046483, 281.206374)"><g><path d="M 27.46875 -6.640625 L 27.46875 0 L 3.046875 0 L 3.046875 -30.421875 L 26.890625 -30.421875 L 26.890625 -23.765625 L 11.5625 -23.765625 L 11.5625 -18.640625 L 25.078125 -18.640625 L 25.078125 -12.203125 L 11.5625 -12.203125 L 11.5625 -6.640625 Z M 27.46875 -6.640625 "/></g></g></g><g fill="#ffffff" fill-opacity="1"><g transform="translate(138.939612, 281.206374)"><g><path d="M 16.34375 -8.078125 L 11.640625 -8.078125 L 11.640625 0 L 3.046875 0 L 3.046875 -30.421875 L 16.953125 -30.421875 C 19.703125 -30.421875 22.085938 -29.960938 24.109375 -29.046875 C 26.140625 -28.140625 27.703125 -26.835938 28.796875 -25.140625 C 29.898438 -23.441406 30.453125 -21.445312 30.453125 -19.15625 C 30.453125 -16.957031 29.9375 -15.039062 28.90625 -13.40625 C 27.882812 -11.769531 26.414062 -10.488281 24.5 -9.5625 L 31.0625 0 L 21.859375 0 Z M 21.765625 -19.15625 C 21.765625 -20.582031 21.316406 -21.6875 20.421875 -22.46875 C 19.523438 -23.25 18.191406 -23.640625 16.421875 -23.640625 L 11.640625 -23.640625 L 11.640625 -14.734375 L 16.421875 -14.734375 C 18.191406 -14.734375 19.523438 -15.113281 20.421875 -15.875 C 21.316406 -16.644531 21.765625 -17.738281 21.765625 -19.15625 Z M 21.765625 -19.15625 "/></g></g></g><g fill="#ffffff" fill-opacity="1"><g transform="translate(176.787538, 281.206374)"><g><path d="M 18.375 0.609375 C 15.164062 0.609375 12.273438 -0.0664062 9.703125 -1.421875 C 7.140625 -2.785156 5.128906 -4.671875 3.671875 -7.078125 C 2.210938 -9.484375 1.484375 -12.191406 1.484375 -15.203125 C 1.484375 -18.222656 2.210938 -20.929688 3.671875 -23.328125 C 5.128906 -25.734375 7.140625 -27.617188 9.703125 -28.984375 C 12.273438 -30.347656 15.164062 -31.03125 18.375 -31.03125 C 21.59375 -31.03125 24.484375 -30.347656 27.046875 -28.984375 C 29.609375 -27.617188 31.617188 -25.734375 33.078125 -23.328125 C 34.546875 -20.929688 35.28125 -18.222656 35.28125 -15.203125 C 35.28125 -12.191406 34.546875 -9.484375 33.078125 -7.078125 C 31.617188 -4.671875 29.609375 -2.785156 27.046875 -1.421875 C 24.484375 -0.0664062 21.59375 0.609375 18.375 0.609375 Z M 18.375 -6.515625 C 19.914062 -6.515625 21.304688 -6.875 22.546875 -7.59375 C 23.796875 -8.320312 24.78125 -9.34375 25.5 -10.65625 C 26.226562 -11.976562 26.59375 -13.492188 26.59375 -15.203125 C 26.59375 -16.910156 26.226562 -18.425781 25.5 -19.75 C 24.78125 -21.070312 23.796875 -22.09375 22.546875 -22.8125 C 21.304688 -23.539062 19.914062 -23.90625 18.375 -23.90625 C 16.84375 -23.90625 15.453125 -23.539062 14.203125 -22.8125 C 12.960938 -22.09375 11.976562 -21.070312 11.25 -19.75 C 10.53125 -18.425781 10.171875 -16.910156 10.171875 -15.203125 C 10.171875 -13.492188 10.53125 -11.976562 11.25 -10.65625 C 11.976562 -9.34375 12.960938 -8.320312 14.203125 -7.59375 C 15.453125 -6.875 16.84375 -6.515625 18.375 -6.515625 Z M 18.375 -6.515625 "/></g></g></g><g fill="#ffffff" fill-opacity="1"><g transform="translate(219.241488, 281.206374)"><g><path d="M 13.734375 0.609375 C 11.265625 0.609375 8.867188 0.304688 6.546875 -0.296875 C 4.234375 -0.910156 2.351562 -1.722656 0.90625 -2.734375 L 3.734375 -9.078125 C 5.097656 -8.179688 6.675781 -7.457031 8.46875 -6.90625 C 10.269531 -6.351562 12.039062 -6.078125 13.78125 -6.078125 C 17.082031 -6.078125 18.734375 -6.90625 18.734375 -8.5625 C 18.734375 -9.425781 18.257812 -10.066406 17.3125 -10.484375 C 16.375 -10.910156 14.863281 -11.351562 12.78125 -11.8125 C 10.488281 -12.3125 8.570312 -12.84375 7.03125 -13.40625 C 5.5 -13.96875 4.179688 -14.867188 3.078125 -16.109375 C 1.984375 -17.359375 1.4375 -19.039062 1.4375 -21.15625 C 1.4375 -23.007812 1.941406 -24.679688 2.953125 -26.171875 C 3.960938 -27.671875 5.472656 -28.851562 7.484375 -29.71875 C 9.503906 -30.59375 11.976562 -31.03125 14.90625 -31.03125 C 16.90625 -31.03125 18.875 -30.800781 20.8125 -30.34375 C 22.75 -29.894531 24.457031 -29.238281 25.9375 -28.375 L 23.296875 -21.984375 C 20.398438 -23.546875 17.585938 -24.328125 14.859375 -24.328125 C 13.148438 -24.328125 11.90625 -24.070312 11.125 -23.5625 C 10.34375 -23.0625 9.953125 -22.40625 9.953125 -21.59375 C 9.953125 -20.78125 10.414062 -20.171875 11.34375 -19.765625 C 12.269531 -19.359375 13.757812 -18.941406 15.8125 -18.515625 C 18.132812 -18.015625 20.054688 -17.484375 21.578125 -16.921875 C 23.097656 -16.359375 24.414062 -15.460938 25.53125 -14.234375 C 26.644531 -13.003906 27.203125 -11.332031 27.203125 -9.21875 C 27.203125 -7.382812 26.691406 -5.726562 25.671875 -4.25 C 24.660156 -2.78125 23.140625 -1.601562 21.109375 -0.71875 C 19.085938 0.164062 16.628906 0.609375 13.734375 0.609375 Z M 13.734375 0.609375 "/></g></g></g><g fill="#ffffff" fill-opacity="1"><g transform="translate(253.048282, 281.206374)"><g><path d="M 3.046875 -30.421875 L 11.640625 -30.421875 L 11.640625 0 L 3.046875 0 Z M 3.046875 -30.421875 "/></g></g></g><g fill="#ffffff" fill-opacity="1"><g transform="translate(273.471556, 281.206374)"><g><path d="M 14.78125 -11.03125 L 11.5625 -7.609375 L 11.5625 0 L 3.046875 0 L 3.046875 -30.421875 L 11.5625 -30.421875 L 11.5625 -17.765625 L 23.328125 -30.421875 L 32.8125 -30.421875 L 20.375 -16.953125 L 33.453125 0 L 23.46875 0 Z M 14.78125 -11.03125 "/></g></g></g><g fill="#ffffff" fill-opacity="1"><g transform="translate(129.096331, 301.457675)"><g><path d="M 3.859375 0.140625 C 3.179688 0.140625 2.515625 0.0625 1.859375 -0.09375 C 1.203125 -0.25 0.671875 -0.453125 0.265625 -0.703125 L 1.125 -2.640625 C 1.488281 -2.410156 1.925781 -2.226562 2.4375 -2.09375 C 2.945312 -1.96875 3.453125 -1.90625 3.953125 -1.90625 C 4.410156 -1.90625 4.734375 -1.953125 4.921875 -2.046875 C 5.117188 -2.140625 5.21875 -2.273438 5.21875 -2.453125 C 5.21875 -2.628906 5.097656 -2.753906 4.859375 -2.828125 C 4.628906 -2.910156 4.257812 -2.984375 3.75 -3.046875 C 3.101562 -3.128906 2.550781 -3.234375 2.09375 -3.359375 C 1.644531 -3.492188 1.253906 -3.734375 0.921875 -4.078125 C 0.597656 -4.429688 0.4375 -4.921875 0.4375 -5.546875 C 0.4375 -6.066406 0.585938 -6.523438 0.890625 -6.921875 C 1.203125 -7.328125 1.65625 -7.644531 2.25 -7.875 C 2.84375 -8.113281 3.550781 -8.234375 4.375 -8.234375 C 4.96875 -8.234375 5.550781 -8.171875 6.125 -8.046875 C 6.707031 -7.929688 7.191406 -7.765625 7.578125 -7.546875 L 6.734375 -5.625 C 6.015625 -6.019531 5.234375 -6.21875 4.390625 -6.21875 C 3.941406 -6.21875 3.613281 -6.164062 3.40625 -6.0625 C 3.195312 -5.957031 3.09375 -5.820312 3.09375 -5.65625 C 3.09375 -5.46875 3.207031 -5.332031 3.4375 -5.25 C 3.664062 -5.175781 4.046875 -5.101562 4.578125 -5.03125 C 5.242188 -4.925781 5.796875 -4.804688 6.234375 -4.671875 C 6.671875 -4.546875 7.050781 -4.3125 7.375 -3.96875 C 7.695312 -3.625 7.859375 -3.144531 7.859375 -2.53125 C 7.859375 -2.019531 7.703125 -1.5625 7.390625 -1.15625 C 7.085938 -0.75 6.632812 -0.429688 6.03125 -0.203125 C 5.425781 0.0234375 4.703125 0.140625 3.859375 0.140625 Z M 3.859375 0.140625 "/></g></g></g><g fill="#ffffff" fill-opacity="1"><g transform="translate(140.558485, 301.457675)"><g><path d="M 6.5 -0.328125 C 6.257812 -0.179688 5.96875 -0.0664062 5.625 0.015625 C 5.28125 0.0976562 4.914062 0.140625 4.53125 0.140625 C 3.476562 0.140625 2.664062 -0.117188 2.09375 -0.640625 C 1.519531 -1.160156 1.234375 -1.929688 1.234375 -2.953125 L 1.234375 -5.6875 L 0.0625 -5.6875 L 0.0625 -7.8125 L 1.234375 -7.8125 L 1.234375 -9.90625 L 4.078125 -9.90625 L 4.078125 -7.8125 L 5.9375 -7.8125 L 5.9375 -5.6875 L 4.078125 -5.6875 L 4.078125 -2.984375 C 4.078125 -2.703125 4.15625 -2.476562 4.3125 -2.3125 C 4.46875 -2.144531 4.675781 -2.0625 4.9375 -2.0625 C 5.257812 -2.0625 5.546875 -2.144531 5.796875 -2.3125 Z M 6.5 -0.328125 "/></g></g></g><g fill="#ffffff" fill-opacity="1"><g transform="translate(150.526498, 301.457675)"><g><path d="M 3.625 -7.125 C 3.90625 -7.5 4.273438 -7.773438 4.734375 -7.953125 C 5.203125 -8.140625 5.738281 -8.234375 6.34375 -8.234375 L 6.34375 -5.6875 C 6.082031 -5.71875 5.867188 -5.734375 5.703125 -5.734375 C 5.085938 -5.734375 4.609375 -5.566406 4.265625 -5.234375 C 3.921875 -4.898438 3.75 -4.394531 3.75 -3.71875 L 3.75 0 L 0.90625 0 L 0.90625 -8.109375 L 3.625 -8.109375 Z M 3.625 -7.125 "/></g></g></g><g fill="#ffffff" fill-opacity="1"><g transform="translate(160.43475, 301.457675)"><g><path d="M 9.203125 -4.03125 C 9.203125 -4.007812 9.1875 -3.773438 9.15625 -3.328125 L 3.265625 -3.328125 C 3.378906 -2.910156 3.609375 -2.585938 3.953125 -2.359375 C 4.296875 -2.140625 4.726562 -2.03125 5.25 -2.03125 C 5.632812 -2.03125 5.96875 -2.082031 6.25 -2.1875 C 6.539062 -2.300781 6.832031 -2.484375 7.125 -2.734375 L 8.609375 -1.1875 C 7.828125 -0.300781 6.675781 0.140625 5.15625 0.140625 C 4.207031 0.140625 3.375 -0.0351562 2.65625 -0.390625 C 1.9375 -0.753906 1.378906 -1.253906 0.984375 -1.890625 C 0.597656 -2.535156 0.40625 -3.257812 0.40625 -4.0625 C 0.40625 -4.863281 0.597656 -5.578125 0.984375 -6.203125 C 1.367188 -6.835938 1.898438 -7.332031 2.578125 -7.6875 C 3.253906 -8.050781 4.015625 -8.234375 4.859375 -8.234375 C 5.671875 -8.234375 6.40625 -8.066406 7.0625 -7.734375 C 7.71875 -7.398438 8.238281 -6.914062 8.625 -6.28125 C 9.007812 -5.65625 9.203125 -4.90625 9.203125 -4.03125 Z M 4.875 -6.21875 C 4.4375 -6.21875 4.066406 -6.09375 3.765625 -5.84375 C 3.472656 -5.59375 3.289062 -5.253906 3.21875 -4.828125 L 6.53125 -4.828125 C 6.457031 -5.253906 6.269531 -5.59375 5.96875 -5.84375 C 5.675781 -6.09375 5.3125 -6.21875 4.875 -6.21875 Z M 4.875 -6.21875 "/></g></g></g><g fill="#ffffff" fill-opacity="1"><g transform="translate(173.316327, 301.457675)"><g><path d="M 9.203125 -4.03125 C 9.203125 -4.007812 9.1875 -3.773438 9.15625 -3.328125 L 3.265625 -3.328125 C 3.378906 -2.910156 3.609375 -2.585938 3.953125 -2.359375 C 4.296875 -2.140625 4.726562 -2.03125 5.25 -2.03125 C 5.632812 -2.03125 5.96875 -2.082031 6.25 -2.1875 C 6.539062 -2.300781 6.832031 -2.484375 7.125 -2.734375 L 8.609375 -1.1875 C 7.828125 -0.300781 6.675781 0.140625 5.15625 0.140625 C 4.207031 0.140625 3.375 -0.0351562 2.65625 -0.390625 C 1.9375 -0.753906 1.378906 -1.253906 0.984375 -1.890625 C 0.597656 -2.535156 0.40625 -3.257812 0.40625 -4.0625 C 0.40625 -4.863281 0.597656 -5.578125 0.984375 -6.203125 C 1.367188 -6.835938 1.898438 -7.332031 2.578125 -7.6875 C 3.253906 -8.050781 4.015625 -8.234375 4.859375 -8.234375 C 5.671875 -8.234375 6.40625 -8.066406 7.0625 -7.734375 C 7.71875 -7.398438 8.238281 -6.914062 8.625 -6.28125 C 9.007812 -5.65625 9.203125 -4.90625 9.203125 -4.03125 Z M 4.875 -6.21875 C 4.4375 -6.21875 4.066406 -6.09375 3.765625 -5.84375 C 3.472656 -5.59375 3.289062 -5.253906 3.21875 -4.828125 L 6.53125 -4.828125 C 6.457031 -5.253906 6.269531 -5.59375 5.96875 -5.84375 C 5.675781 -6.09375 5.3125 -6.21875 4.875 -6.21875 Z M 4.875 -6.21875 "/></g></g></g><g fill="#ffffff" fill-opacity="1"><g transform="translate(186.197905, 301.457675)"><g><path d="M 6.5 -0.328125 C 6.257812 -0.179688 5.96875 -0.0664062 5.625 0.015625 C 5.28125 0.0976562 4.914062 0.140625 4.53125 0.140625 C 3.476562 0.140625 2.664062 -0.117188 2.09375 -0.640625 C 1.519531 -1.160156 1.234375 -1.929688 1.234375 -2.953125 L 1.234375 -5.6875 L 0.0625 -5.6875 L 0.0625 -7.8125 L 1.234375 -7.8125 L 1.234375 -9.90625 L 4.078125 -9.90625 L 4.078125 -7.8125 L 5.9375 -7.8125 L 5.9375 -5.6875 L 4.078125 -5.6875 L 4.078125 -2.984375 C 4.078125 -2.703125 4.15625 -2.476562 4.3125 -2.3125 C 4.46875 -2.144531 4.675781 -2.0625 4.9375 -2.0625 C 5.257812 -2.0625 5.546875 -2.144531 5.796875 -2.3125 Z M 6.5 -0.328125 "/></g></g></g><g fill="#ffffff" fill-opacity="1"><g transform="translate(196.16592, 301.457675)"><g><path d="M 14.34375 -8.109375 L 11.453125 0 L 8.703125 0 L 7.171875 -4.40625 L 5.59375 0 L 2.84375 0 L -0.046875 -8.109375 L 2.640625 -8.109375 L 4.3125 -3.203125 L 6.03125 -8.109375 L 8.453125 -8.109375 L 10.125 -3.15625 L 11.84375 -8.109375 Z M 14.34375 -8.109375 "/></g></g></g><g fill="#ffffff" fill-opacity="1"><g transform="translate(213.739082, 301.457675)"><g><path d="M 9.203125 -4.03125 C 9.203125 -4.007812 9.1875 -3.773438 9.15625 -3.328125 L 3.265625 -3.328125 C 3.378906 -2.910156 3.609375 -2.585938 3.953125 -2.359375 C 4.296875 -2.140625 4.726562 -2.03125 5.25 -2.03125 C 5.632812 -2.03125 5.96875 -2.082031 6.25 -2.1875 C 6.539062 -2.300781 6.832031 -2.484375 7.125 -2.734375 L 8.609375 -1.1875 C 7.828125 -0.300781 6.675781 0.140625 5.15625 0.140625 C 4.207031 0.140625 3.375 -0.0351562 2.65625 -0.390625 C 1.9375 -0.753906 1.378906 -1.253906 0.984375 -1.890625 C 0.597656 -2.535156 0.40625 -3.257812 0.40625 -4.0625 C 0.40625 -4.863281 0.597656 -5.578125 0.984375 -6.203125 C 1.367188 -6.835938 1.898438 -7.332031 2.578125 -7.6875 C 3.253906 -8.050781 4.015625 -8.234375 4.859375 -8.234375 C 5.671875 -8.234375 6.40625 -8.066406 7.0625 -7.734375 C 7.71875 -7.398438 8.238281 -6.914062 8.625 -6.28125 C 9.007812 -5.65625 9.203125 -4.90625 9.203125 -4.03125 Z M 4.875 -6.21875 C 4.4375 -6.21875 4.066406 -6.09375 3.765625 -5.84375 C 3.472656 -5.59375 3.289062 -5.253906 3.21875 -4.828125 L 6.53125 -4.828125 C 6.457031 -5.253906 6.269531 -5.59375 5.96875 -5.84375 C 5.675781 -6.09375 5.3125 -6.21875 4.875 -6.21875 Z M 4.875 -6.21875 "/></g></g></g><g fill="#ffffff" fill-opacity="1"><g transform="translate(226.620654, 301.457675)"><g><path d="M 4.359375 -8.234375 C 5.710938 -8.234375 6.742188 -7.925781 7.453125 -7.3125 C 8.160156 -6.707031 8.515625 -5.769531 8.515625 -4.5 L 8.515625 0 L 5.859375 0 L 5.859375 -1.046875 C 5.453125 -0.253906 4.65625 0.140625 3.46875 0.140625 C 2.84375 0.140625 2.300781 0.03125 1.84375 -0.1875 C 1.382812 -0.40625 1.035156 -0.703125 0.796875 -1.078125 C 0.566406 -1.453125 0.453125 -1.878906 0.453125 -2.359375 C 0.453125 -3.128906 0.742188 -3.722656 1.328125 -4.140625 C 1.921875 -4.566406 2.828125 -4.78125 4.046875 -4.78125 L 5.671875 -4.78125 C 5.617188 -5.644531 5.046875 -6.078125 3.953125 -6.078125 C 3.554688 -6.078125 3.160156 -6.015625 2.765625 -5.890625 C 2.367188 -5.765625 2.03125 -5.59375 1.75 -5.375 L 0.796875 -7.296875 C 1.242188 -7.597656 1.785156 -7.828125 2.421875 -7.984375 C 3.066406 -8.148438 3.710938 -8.234375 4.359375 -8.234375 Z M 4.265625 -1.65625 C 4.585938 -1.65625 4.875 -1.734375 5.125 -1.890625 C 5.375 -2.054688 5.554688 -2.296875 5.671875 -2.609375 L 5.671875 -3.296875 L 4.4375 -3.296875 C 3.613281 -3.296875 3.203125 -3.023438 3.203125 -2.484375 C 3.203125 -2.234375 3.296875 -2.03125 3.484375 -1.875 C 3.671875 -1.726562 3.929688 -1.65625 4.265625 -1.65625 Z M 4.265625 -1.65625 "/></g></g></g><g fill="#ffffff" fill-opacity="1"><g transform="translate(239.293051, 301.457675)"><g><path d="M 3.625 -7.125 C 3.90625 -7.5 4.273438 -7.773438 4.734375 -7.953125 C 5.203125 -8.140625 5.738281 -8.234375 6.34375 -8.234375 L 6.34375 -5.6875 C 6.082031 -5.71875 5.867188 -5.734375 5.703125 -5.734375 C 5.085938 -5.734375 4.609375 -5.566406 4.265625 -5.234375 C 3.921875 -4.898438 3.75 -4.394531 3.75 -3.71875 L 3.75 0 L 0.90625 0 L 0.90625 -8.109375 L 3.625 -8.109375 Z M 3.625 -7.125 "/></g></g></g></svg>